<?xml version="1.0" standalone="no"?>
<!DOCTYPE svg PUBLIC "-//W3C//DTD SVG 20010904//EN"
 "http://www.w3.org/TR/2001/REC-SVG-20010904/DTD/svg10.dtd">
<svg version="1.0" xmlns="http://www.w3.org/2000/svg"
 width="340.000000pt" height="340.000000pt" viewBox="0 0 340.000000 340.000000"
 preserveAspectRatio="xMidYMid meet">
<metadata>
Created by potrace 1.11, written by Peter Selinger 2001-2013
</metadata>
<g transform="translate(0.000000,340.000000) scale(0.100000,-0.100000)"
fill="#000000" stroke="none">
<path d="M1419 3290 c-150 -27 -284 -72 -434 -146 -448 -221 -758 -623 -867
-1124 -30 -141 -33 -486 -5 -620 109 -512 408 -911 857 -1140 451 -230 977
-235 1435 -15 799 385 1135 1336 758 2145 -221 476 -688 824 -1213 905 -135
21 -397 18 -531 -5z m-52 -1204 c169 -223 310 -405 313 -405 3 -1 140 177 305
394 165 217 303 395 307 395 3 0 12 -15 18 -34 l11 -34 -317 -416 c-175 -229
-321 -415 -325 -414 -4 2 -155 197 -336 433 l-328 430 -3 -772 -2 -773 -35 0
-35 0 0 800 0 800 60 0 59 0 308 -404z m1078 -246 c22 0 25 -4 25 -35 0 -31
-3 -35 -25 -35 l-25 0 0 -430 0 -430 -35 0 -35 0 0 430 0 430 -145 0 c-80 0
-145 2 -145 5 0 3 10 19 22 35 l22 30 123 0 123 0 0 161 0 161 33 45 32 45 3
-206 2 -206 25 0z"/>
</g>
</svg>
